<svg width="41" height="41" viewBox="0 0 41 41" fill="none" xmlns="http://www.w3.org/2000/svg">
<path d="M20.4983 37.5834C12.0534 37.4721 5.2346 30.6532 5.12329 22.2084C5.2346 13.7635 12.0534 6.9447 20.4983 6.83339C28.9431 6.9447 35.762 13.7635 35.8733 22.2084C35.762 30.6532 28.9431 37.4721 20.4983 37.5834ZM20.4983 10.2501C13.93 10.3365 8.62643 15.6401 8.53996 22.2084C8.62643 28.7766 13.93 34.0802 20.4983 34.1667C27.0665 34.0802 32.3702 28.7766 32.4566 22.2084C32.3702 15.6401 27.0665 10.3365 20.4983 10.2501ZM29.04 23.9167H18.79V13.6667H22.2066V20.5001H29.04V23.9167ZM34.6638 11.4596L29.5234 6.33456L31.9305 3.91385L37.0725 9.03885L34.6638 11.4578V11.4596ZM6.33108 11.4596L3.91379 9.03885L9.02342 3.91385L11.4407 6.33456L6.3345 11.4596H6.33108Z" fill="white"/>
</svg>
