<svg width="28" height="34" viewBox="0 0 28 34" fill="none" xmlns="http://www.w3.org/2000/svg">
<path d="M5.20523 9.37596C5.20523 4.65852 9.02946 0.83429 13.7469 0.83429C18.4643 0.83429 22.2886 4.65852 22.2886 9.37596C22.2886 14.0934 18.4643 17.9176 13.7469 17.9176C9.02946 17.9176 5.20523 14.0934 5.20523 9.37596ZM13.7469 14.501C16.5774 14.501 18.8719 12.2064 18.8719 9.37596C18.8719 6.5455 16.5774 4.25096 13.7469 4.25096C10.9164 4.25096 8.6219 6.5455 8.6219 9.37596C8.6219 12.2064 10.9164 14.501 13.7469 14.501Z" fill="white"/>
<path d="M4.0831 23.6288C1.52011 26.1918 0.0802307 29.668 0.0802307 33.2926H3.4969C3.4969 30.5742 4.5768 27.967 6.49905 26.0448C8.4213 24.1225 11.0284 23.0426 13.7469 23.0426C16.4654 23.0426 19.0725 24.1225 20.9947 26.0448C22.917 27.967 23.9969 30.5742 23.9969 33.2926H27.4136C27.4136 29.668 25.9737 26.1918 23.4107 23.6288C20.8477 21.0658 17.3715 19.626 13.7469 19.626C10.1223 19.626 6.6461 21.0658 4.0831 23.6288Z" fill="white"/>
</svg>
